<svg width="376" height="45" viewBox="0 0 376 45" fill="none" xmlns="http://www.w3.org/2000/svg">
<rect x="0.25" y="0.25" width="250.5" height="44.5" stroke="#4A1D1F" stroke-width="0.5"/>
<rect x="206" width="45" height="45" fill="#4A1D1F"/>
<path d="M21.768 28.112C21.032 28.112 20.3707 27.984 19.784 27.728C19.208 27.4613 18.7547 27.0987 18.424 26.64C18.0933 26.1707 17.9227 25.632 17.912 25.024H19.464C19.5173 25.5467 19.7307 25.9893 20.104 26.352C20.488 26.704 21.0427 26.88 21.768 26.88C22.4613 26.88 23.0053 26.7093 23.4 26.368C23.8053 26.016 24.008 25.568 24.008 25.024C24.008 24.5973 23.8907 24.2507 23.656 23.984C23.4213 23.7173 23.128 23.5147 22.776 23.376C22.424 23.2373 21.9493 23.088 21.352 22.928C20.616 22.736 20.024 22.544 19.576 22.352C19.1387 22.16 18.76 21.8613 18.44 21.456C18.1307 21.04 17.976 20.4853 17.976 19.792C17.976 19.184 18.1307 18.6453 18.44 18.176C18.7493 17.7067 19.1813 17.344 19.736 17.088C20.3013 16.832 20.9467 16.704 21.672 16.704C22.7173 16.704 23.5707 16.9653 24.232 17.488C24.904 18.0107 25.2827 18.704 25.368 19.568H23.768C23.7147 19.1413 23.4907 18.768 23.096 18.448C22.7013 18.1173 22.1787 17.952 21.528 17.952C20.92 17.952 20.424 18.112 20.04 18.432C19.656 18.7413 19.464 19.1787 19.464 19.744C19.464 20.1493 19.576 20.48 19.8 20.736C20.0347 20.992 20.3173 21.1893 20.648 21.328C20.9893 21.456 21.464 21.6053 22.072 21.776C22.808 21.9787 23.4 22.1813 23.848 22.384C24.296 22.576 24.68 22.88 25 23.296C25.32 23.7013 25.48 24.256 25.48 24.96C25.48 25.504 25.336 26.016 25.048 26.496C24.76 26.976 24.3333 27.3653 23.768 27.664C23.2027 27.9627 22.536 28.112 21.768 28.112ZM35.6226 23.28C35.6226 23.5573 35.6066 23.8507 35.5746 24.16H28.5666C28.62 25.024 28.9133 25.7013 29.4466 26.192C29.9906 26.672 30.6466 26.912 31.4146 26.912C32.044 26.912 32.5666 26.768 32.9826 26.48C33.4093 26.1813 33.708 25.7867 33.8786 25.296H35.4466C35.212 26.1387 34.7426 26.8267 34.0386 27.36C33.3346 27.8827 32.46 28.144 31.4146 28.144C30.5826 28.144 29.836 27.9573 29.1746 27.584C28.524 27.2107 28.012 26.6827 27.6386 26C27.2653 25.3067 27.0786 24.5067 27.0786 23.6C27.0786 22.6933 27.26 21.8987 27.6226 21.216C27.9853 20.5333 28.492 20.0107 29.1426 19.648C29.804 19.2747 30.5613 19.088 31.4146 19.088C32.2466 19.088 32.9826 19.2693 33.6226 19.632C34.2626 19.9947 34.7533 20.496 35.0946 21.136C35.4466 21.7653 35.6226 22.48 35.6226 23.28ZM34.1186 22.976C34.1186 22.4213 33.996 21.9467 33.7506 21.552C33.5053 21.1467 33.1693 20.8427 32.7426 20.64C32.3266 20.4267 31.8626 20.32 31.3506 20.32C30.6146 20.32 29.9853 20.5547 29.4626 21.024C28.9506 21.4933 28.6573 22.144 28.5826 22.976H34.1186ZM37.0005 23.584C37.0005 22.688 37.1818 21.904 37.5445 21.232C37.9072 20.5493 38.4032 20.0213 39.0325 19.648C39.6725 19.2747 40.3818 19.088 41.1605 19.088C41.9285 19.088 42.5952 19.2533 43.1605 19.584C43.7258 19.9147 44.1472 20.3307 44.4245 20.832V19.232H45.8965V28H44.4245V26.368C44.1365 26.88 43.7045 27.3067 43.1285 27.648C42.5632 27.9787 41.9018 28.144 41.1445 28.144C40.3658 28.144 39.6618 27.952 39.0325 27.568C38.4032 27.184 37.9072 26.6453 37.5445 25.952C37.1818 25.2587 37.0005 24.4693 37.0005 23.584ZM44.4245 23.6C44.4245 22.9387 44.2912 22.3627 44.0245 21.872C43.7578 21.3813 43.3952 21.008 42.9365 20.752C42.4885 20.4853 41.9925 20.352 41.4485 20.352C40.9045 20.352 40.4085 20.48 39.9605 20.736C39.5125 20.992 39.1552 21.3653 38.8885 21.856C38.6218 22.3467 38.4885 22.9227 38.4885 23.584C38.4885 24.256 38.6218 24.8427 38.8885 25.344C39.1552 25.8347 39.5125 26.2133 39.9605 26.48C40.4085 26.736 40.9045 26.864 41.4485 26.864C41.9925 26.864 42.4885 26.736 42.9365 26.48C43.3952 26.2133 43.7578 25.8347 44.0245 25.344C44.2912 24.8427 44.4245 24.2613 44.4245 23.6ZM49.813 20.656C50.069 20.1547 50.4317 19.7653 50.901 19.488C51.381 19.2107 51.9623 19.072 52.645 19.072V20.576H52.261C50.629 20.576 49.813 21.4613 49.813 23.232V28H48.357V19.232H49.813V20.656ZM53.7818 23.6C53.7818 22.6933 53.9631 21.904 54.3258 21.232C54.6884 20.5493 55.1898 20.0213 55.8298 19.648C56.4804 19.2747 57.2218 19.088 58.0538 19.088C59.1311 19.088 60.0164 19.3493 60.7098 19.872C61.4138 20.3947 61.8778 21.12 62.1018 22.048H60.5338C60.3844 21.5147 60.0911 21.0933 59.6538 20.784C59.2271 20.4747 58.6938 20.32 58.0538 20.32C57.2218 20.32 56.5498 20.608 56.0378 21.184C55.5258 21.7493 55.2698 22.5547 55.2698 23.6C55.2698 24.656 55.5258 25.472 56.0378 26.048C56.5498 26.624 57.2218 26.912 58.0538 26.912C58.6938 26.912 59.2271 26.7627 59.6538 26.464C60.0804 26.1653 60.3738 25.7387 60.5338 25.184H62.1018C61.8671 26.08 61.3978 26.8 60.6938 27.344C59.9898 27.8773 59.1098 28.144 58.0538 28.144C57.2218 28.144 56.4804 27.9573 55.8298 27.584C55.1898 27.2107 54.6884 26.6827 54.3258 26C53.9631 25.3173 53.7818 24.5173 53.7818 23.6ZM68.3965 19.072C69.0578 19.072 69.6552 19.216 70.1885 19.504C70.7218 19.7813 71.1378 20.2027 71.4365 20.768C71.7458 21.3333 71.9005 22.0213 71.9005 22.832V28H70.4605V23.04C70.4605 22.1653 70.2418 21.4987 69.8045 21.04C69.3672 20.5707 68.7698 20.336 68.0125 20.336C67.2445 20.336 66.6312 20.576 66.1725 21.056C65.7245 21.536 65.5005 22.2347 65.5005 23.152V28H64.0445V16.16H65.5005V20.48C65.7885 20.032 66.1832 19.6853 66.6845 19.44C67.1965 19.1947 67.7672 19.072 68.3965 19.072Z" fill="#B4B4B4"/>
<path d="M237 32L232.514 27.506L237 32ZM235 21.5C235 23.7543 234.104 25.9163 232.51 27.5104C230.916 29.1045 228.754 30 226.5 30C224.246 30 222.084 29.1045 220.49 27.5104C218.896 25.9163 218 23.7543 218 21.5C218 19.2457 218.896 17.0837 220.49 15.4896C222.084 13.8955 224.246 13 226.5 13C228.754 13 230.916 13.8955 232.51 15.4896C234.104 17.0837 235 19.2457 235 21.5V21.5Z" stroke="#FBEDCD" stroke-width="2" stroke-linecap="round"/>
<path fill-rule="evenodd" clip-rule="evenodd" d="M309.625 35.25C309.625 35.25 311.75 35.25 311.75 33.125C311.75 31 309.625 24.625 299 24.625C288.375 24.625 286.25 31 286.25 33.125C286.25 35.25 288.375 35.25 288.375 35.25H309.625ZM288.386 33.244V33.2397V33.244ZM288.422 33.125H309.578C309.588 33.1238 309.598 33.1224 309.608 33.1208L309.625 33.1165C309.623 32.5938 309.298 31.0212 307.857 29.5805C306.472 28.195 303.864 26.75 299 26.75C294.134 26.75 291.529 28.195 290.143 29.5805C288.702 31.0212 288.379 32.5938 288.375 33.1165C288.391 33.1195 288.406 33.1223 288.422 33.125ZM309.617 33.244V33.2397V33.244ZM299 20.375C300.127 20.375 301.208 19.9272 302.005 19.1302C302.802 18.3332 303.25 17.2522 303.25 16.125C303.25 14.9978 302.802 13.9168 302.005 13.1198C301.208 12.3228 300.127 11.875 299 11.875C297.873 11.875 296.792 12.3228 295.995 13.1198C295.198 13.9168 294.75 14.9978 294.75 16.125C294.75 17.2522 295.198 18.3332 295.995 19.1302C296.792 19.9272 297.873 20.375 299 20.375ZM305.375 16.125C305.375 17.8158 304.703 19.4373 303.508 20.6328C302.312 21.8284 300.691 22.5 299 22.5C297.309 22.5 295.688 21.8284 294.492 20.6328C293.297 19.4373 292.625 17.8158 292.625 16.125C292.625 14.4342 293.297 12.8127 294.492 11.6172C295.688 10.4217 297.309 9.75 299 9.75C300.691 9.75 302.312 10.4217 303.508 11.6172C304.703 12.8127 305.375 14.4342 305.375 16.125Z" fill="#272727"/>
<g clip-path="url(#clip0_10_118)">
<path fill-rule="evenodd" clip-rule="evenodd" d="M347 12.9375C347 12.722 347.086 12.5153 347.238 12.363C347.39 12.2106 347.597 12.125 347.812 12.125H350.25C350.431 12.1251 350.607 12.1857 350.75 12.2973C350.893 12.4089 350.994 12.565 351.038 12.7409L351.696 15.375H370.562C370.683 15.3751 370.801 15.4018 370.91 15.4532C371.018 15.5047 371.114 15.5796 371.19 15.6725C371.267 15.7655 371.321 15.8742 371.35 15.9907C371.379 16.1073 371.382 16.2289 371.359 16.3468L369.734 24.4717C369.698 24.6489 369.605 24.8092 369.468 24.9272C369.331 25.0452 369.159 25.1143 368.978 25.1234L353.708 25.8904L354.174 28.375H368.125C368.34 28.375 368.547 28.4606 368.7 28.613C368.852 28.7653 368.938 28.972 368.938 29.1875C368.938 29.403 368.852 29.6097 368.7 29.762C368.547 29.9144 368.34 30 368.125 30H353.5C353.311 29.9998 353.127 29.9335 352.981 29.8124C352.836 29.6913 352.737 29.5232 352.702 29.337L350.266 16.3614L349.616 13.75H347.812C347.597 13.75 347.39 13.6644 347.238 13.512C347.086 13.3597 347 13.153 347 12.9375ZM352.041 17L353.406 24.2784L368.265 23.5325L369.571 17H352.041ZM355.125 30C354.263 30 353.436 30.3424 352.827 30.9519C352.217 31.5614 351.875 32.388 351.875 33.25C351.875 34.112 352.217 34.9386 352.827 35.5481C353.436 36.1576 354.263 36.5 355.125 36.5C355.987 36.5 356.814 36.1576 357.423 35.5481C358.033 34.9386 358.375 34.112 358.375 33.25C358.375 32.388 358.033 31.5614 357.423 30.9519C356.814 30.3424 355.987 30 355.125 30ZM366.5 30C365.638 30 364.811 30.3424 364.202 30.9519C363.592 31.5614 363.25 32.388 363.25 33.25C363.25 34.112 363.592 34.9386 364.202 35.5481C364.811 36.1576 365.638 36.5 366.5 36.5C367.362 36.5 368.189 36.1576 368.798 35.5481C369.408 34.9386 369.75 34.112 369.75 33.25C369.75 32.388 369.408 31.5614 368.798 30.9519C368.189 30.3424 367.362 30 366.5 30ZM355.125 31.625C354.694 31.625 354.281 31.7962 353.976 32.101C353.671 32.4057 353.5 32.819 353.5 33.25C353.5 33.681 353.671 34.0943 353.976 34.399C354.281 34.7038 354.694 34.875 355.125 34.875C355.556 34.875 355.969 34.7038 356.274 34.399C356.579 34.0943 356.75 33.681 356.75 33.25C356.75 32.819 356.579 32.4057 356.274 32.101C355.969 31.7962 355.556 31.625 355.125 31.625ZM366.5 31.625C366.069 31.625 365.656 31.7962 365.351 32.101C365.046 32.4057 364.875 32.819 364.875 33.25C364.875 33.681 365.046 34.0943 365.351 34.399C365.656 34.7038 366.069 34.875 366.5 34.875C366.931 34.875 367.344 34.7038 367.649 34.399C367.954 34.0943 368.125 33.681 368.125 33.25C368.125 32.819 367.954 32.4057 367.649 32.101C367.344 31.7962 366.931 31.625 366.5 31.625Z" fill="#272727"/>
</g>
<circle cx="370.5" cy="14" r="5.5" fill="#4A1D1F"/>
<path d="M371.403 17.5H370.222V11.792L368.479 12.3877V11.3867L371.252 10.3662H371.403V17.5Z" fill="white"/>
<defs>
<clipPath id="clip0_10_118">
<rect width="26" height="26" fill="white" transform="translate(347 10.5)"/>
</clipPath>
</defs>
</svg>
